HIERARCHY
ROOT Root
{
	OFFSET 0.00000 0.00000 0.00000
	CHANNELS 6 Xposition Yposition Zposition Zrotation Xrotation Yrotation
	JOINT Hip
	{
		OFFSET 0 0 0	
		CHANNELS 3 Zrotation Xrotation Yrotation
		JOINT Tummy
		{
			OFFSET 0 0.04 0	
			CHANNELS 3 Zrotation Xrotation Yrotation
			JOINT ChestBottom
			{
				OFFSET 0 0.194 0	
				CHANNELS 3 Zrotation Xrotation Yrotation
				JOINT ChestTop
				{
					OFFSET 0 0.166 0	
					CHANNELS 3 Zrotation Xrotation Yrotation
					JOINT LeftCollar
					{
						OFFSET 0 0.1 0	
						CHANNELS 3 Zrotation Xrotation Yrotation
						JOINT LeftUpperArm
						{
							OFFSET 0.156 -0.02 0.03	
							CHANNELS 3 Zrotation Xrotation Yrotation
							JOINT LeftForeArm
							{
								OFFSET 0.035 -0.27 -0.01	
								CHANNELS 3 Zrotation Xrotation Yrotation
								JOINT LeftHand
								{
									OFFSET 0.01 -0.27 0.01	
									CHANNELS 3 Zrotation Xrotation Yrotation
									End Site
									{
										OFFSET 0 -0.15 0
									}
								}
							}
						}
					}
					JOINT RightCollar
					{
						OFFSET 0 0.1 0	
						CHANNELS 3 Zrotation Xrotation Yrotation
						JOINT RightUpperArm
						{
							OFFSET -0.156 -0.02 0.03	
							CHANNELS 3 Zrotation Xrotation Yrotation
							JOINT RightForeArm
							{
								OFFSET -0.035 -0.27 -0.01	
								CHANNELS 3 Zrotation Xrotation Yrotation
								JOINT RightHand
								{
									OFFSET -0.01 -0.27 0.01	
									CHANNELS 3 Zrotation Xrotation Yrotation
									End Site
									{
										OFFSET 0 -0.15 0
									}
								}
							}
						}
					}
					JOINT Neck
					{
						OFFSET 0 0.1 0	
						CHANNELS 3 Zrotation Xrotation Yrotation
						JOINT Head
						{
							OFFSET 0 0.127 0.03	
							CHANNELS 3 Zrotation Xrotation Yrotation
							End Site
							{
								OFFSET 0 0.127 0.03
							}
						}
					}
				}
			}
		}
	}
	JOINT LeftHip
	{
		OFFSET 0 0 0	
		CHANNELS 3 Zrotation Xrotation Yrotation
		JOINT LeftThigh
		{
			OFFSET 0.088 -0.06 0	
			CHANNELS 3 Zrotation Xrotation Yrotation
			JOINT LeftLowerLeg
			{
				OFFSET 0 -0.39 0.02	
				CHANNELS 3 Zrotation Xrotation Yrotation
				JOINT LeftFootTop
				{
					OFFSET 0 -0.43 -0.02	
					CHANNELS 3 Zrotation Xrotation Yrotation
					JOINT LeftFootFront
					{
						OFFSET 0 -0.07 0.085	
						CHANNELS 3 Zrotation Xrotation Yrotation
						End Site
						{
							OFFSET 0 -0.005 0.09
						}
					}
				}
				JOINT LeftHeel
				{
					OFFSET 0 -0.43 -0.02	
					CHANNELS 3 Zrotation Xrotation Yrotation
					End Site
					{
						OFFSET 0 -0.075 -0.05
					}
				}
			}
		}
	}
	JOINT RightHip
	{
		OFFSET 0 0 0	
		CHANNELS 3 Zrotation Xrotation Yrotation
		JOINT RightThigh
		{
			OFFSET -0.088 -0.06 0	
			CHANNELS 3 Zrotation Xrotation Yrotation
			JOINT RightLowerLeg
			{
				OFFSET 0 -0.39 0.02	
				CHANNELS 3 Zrotation Xrotation Yrotation
				JOINT RightFootTop
				{
					OFFSET 0 -0.43 -0.02	
					CHANNELS 3 Zrotation Xrotation Yrotation
					JOINT RightFootFront
					{
						OFFSET 0 -0.07 0.085	
						CHANNELS 3 Zrotation Xrotation Yrotation
						End Site
						{
							OFFSET 0 -0.005 0.09
						}
					}
				}
				JOINT RightHeel
				{
					OFFSET 0 -0.43 -0.02	
					CHANNELS 3 Zrotation Xrotation Yrotation
					End Site
					{
						OFFSET 0 -0.075 -0.05
					}
				}
			}
		}
	}
}
MOTION
Frames: 12
Frame Time: 0.05
0 0.955 0 -0 0 -0 -0 0 -0 -0 0 -0 3.5898 13.114 -24.497 -0 0 -0 -0 0 -0 32.13 -60.465 57.596 -87.554 -35.59 -88.156 -0 0 -0 -0 0 -0 52.93 -33.821 69.015 111.77 -18.77 27.974 -0 0 -0 3.5739 -22.043 9.1876 3.5739 -22.043 9.1876 -0 0 -0 -0 0 -0 -0 0 -0 -0 0 -0 -0 0 -0 -0 0 -0 -0 0 -0 -0 0 -0 -0 0 -0 -0 0 -0 -0 0 -0 -0 0 -0 
0 0.955 0 -0 0 -0 -0 0 -0 -0 0 -0 3.607 13.191 -24.485 -0 0 -0 -0 0 -0 32.233 -60.555 57.666 -87.594 -35.542 -88.145 -0 0 -0 -0 0 -0 52.985 -33.903 69.09 111.86 -18.772 28.111 -0 0 -0 3.5574 -22.063 9.177 3.5574 -22.063 9.177 -0 0 -0 -0 0 -0 -0 0 -0 -0 0 -0 -0 0 -0 -0 0 -0 -0 0 -0 -0 0 -0 -0 0 -0 -0 0 -0 -0 0 -0 -0 0 -0 
0 0.955 0 -0 0 -0 -0 0 -0 -0 0 -0 3.6099 13.169 -24.473 -0 0 -0 -0 0 -0 32.195 -60.555 57.589 -87.614 -35.534 -88.137 -0 0 -0 -0 0 -0 52.984 -33.927 69.065 111.93 -18.794 28.166 -0 0 -0 3.5486 -22.095 9.1644 3.5486 -22.095 9.1644 -0 0 -0 -0 0 -0 -0 0 -0 -0 0 -0 -0 0 -0 -0 0 -0 -0 0 -0 -0 0 -0 -0 0 -0 -0 0 -0 -0 0 -0 -0 0 -0 
0 0.955 0 -0 0 -0 -0 0 -0 -0 0 -0 3.594 13.189 -24.446 -0 0 -0 -0 0 -0 32.242 -60.583 57.566 -87.639 -35.532 -88.129 -0 0 -0 -0 0 -0 52.997 -33.967 69.091 112.01 -18.839 28.273 -0 0 -0 3.5535 -22.137 9.1321 3.5535 -22.137 9.1321 -0 0 -0 -0 0 -0 -0 0 -0 -0 0 -0 -0 0 -0 -0 0 -0 -0 0 -0 -0 0 -0 -0 0 -0 -0 0 -0 -0 0 -0 -0 0 -0 
0 0.955 0 -0 0 -0 -0 0 -0 -0 0 -0 3.6253 13.242 -24.44 -0 0 -0 -0 0 -0 32.274 -60.641 57.566 -87.68 -35.547 -88.149 -0 0 -0 -0 0 -0 52.997 -34.023 69.16 112.08 -18.823 28.397 -0 0 -0 3.5435 -22.208 9.113 3.5435 -22.208 9.113 -0 0 -0 -0 0 -0 -0 0 -0 -0 0 -0 -0 0 -0 -0 0 -0 -0 0 -0 -0 0 -0 -0 0 -0 -0 0 -0 -0 0 -0 -0 0 -0 
0 0.955 0 -0 0 -0 -0 0 -0 -0 0 -0 3.6308 13.286 -24.429 -0 0 -0 -0 0 -0 32.292 -60.671 57.516 -87.728 -35.573 -88.21 -0 0 -0 -0 0 -0 53.021 -34.071 69.212 112.16 -18.814 28.513 -0 0 -0 3.5303 -22.229 9.0846 3.5303 -22.229 9.0846 -0 0 -0 -0 0 -0 -0 0 -0 -0 0 -0 -0 0 -0 -0 0 -0 -0 0 -0 -0 0 -0 -0 0 -0 -0 0 -0 -0 0 -0 -0 0 -0 
0 0.955 0 -0 0 -0 -0 0 -0 -0 0 -0 3.6577 13.319 -24.446 -0 0 -0 -0 0 -0 32.319 -60.694 57.55 -87.759 -35.572 -88.353 -0 0 -0 -0 0 -0 53.047 -34.096 69.284 112.24 -18.804 28.611 -0 0 -0 3.4962 -22.23 9.0937 3.4962 -22.23 9.0937 -0 0 -0 -0 0 -0 -0 0 -0 -0 0 -0 -0 0 -0 -0 0 -0 -0 0 -0 -0 0 -0 -0 0 -0 -0 0 -0 -0 0 -0 -0 0 -0 
0 0.955 0 -0 0 -0 -0 0 -0 -0 0 -0 3.6691 13.336 -24.441 -0 0 -0 -0 0 -0 32.328 -60.704 57.558 -87.794 -35.568 -88.391 -0 0 -0 -0 0 -0 53.062 -34.124 69.336 112.31 -18.811 28.728 -0 0 -0 3.4808 -22.177 9.103 3.4808 -22.177 9.103 -0 0 -0 -0 0 -0 -0 0 -0 -0 0 -0 -0 0 -0 -0 0 -0 -0 0 -0 -0 0 -0 -0 0 -0 -0 0 -0 -0 0 -0 -0 0 -0 
0 0.955 0 -0 0 -0 -0 0 -0 -0 0 -0 3.6709 13.33 -24.431 -0 0 -0 -0 0 -0 32.305 -60.704 57.482 -87.837 -35.593 -88.409 -0 0 -0 -0 0 -0 53.075 -34.154 69.371 112.4 -18.855 28.95 -0 0 -0 3.4511 -22.142 9.1169 3.4511 -22.142 9.1169 -0 0 -0 -0 0 -0 -0 0 -0 -0 0 -0 -0 0 -0 -0 0 -0 -0 0 -0 -0 0 -0 -0 0 -0 -0 0 -0 -0 0 -0 -0 0 -0 
0 0.955 0 -0 0 -0 -0 0 -0 -0 0 -0 3.6844 13.39 -24.404 -0 0 -0 -0 0 -0 32.314 -60.755 57.411 -87.934 -35.613 -88.494 -0 0 -0 -0 0 -0 53.119 -34.232 69.423 112.49 -18.842 29.077 -0 0 -0 3.4281 -22.176 9.1031 3.4281 -22.176 9.1031 -0 0 -0 -0 0 -0 -0 0 -0 -0 0 -0 -0 0 -0 -0 0 -0 -0 0 -0 -0 0 -0 -0 0 -0 -0 0 -0 -0 0 -0 -0 0 -0 
0 0.955 0 -0 0 -0 -0 0 -0 -0 0 -0 3.7492 13.463 -24.452 -0 0 -0 -0 0 -0 32.37 -60.803 57.505 -88.015 -35.584 -88.573 -0 0 -0 -0 0 -0 53.149 -34.284 69.563 112.58 -18.835 29.208 -0 0 -0 3.382 -22.193 9.1194 3.382 -22.193 9.1194 -0 0 -0 -0 0 -0 -0 0 -0 -0 0 -0 -0 0 -0 -0 0 -0 -0 0 -0 -0 0 -0 -0 0 -0 -0 0 -0 -0 0 -0 -0 0 -0 
0 0.955 0 -0 0 -0 -0 0 -0 -0 0 -0 3.7003 13.532 -24.288 -0 0 -0 -0 0 -0 32.263 -60.957 57.287 -88.042 -35.563 -88.574 -0 0 -0 -0 0 -0 53.155 -34.46 69.49 112.66 -18.829 29.375 -0 0 -0 3.3147 -22.119 9.0044 3.3147 -22.119 9.0044 -0 0 -0 -0 0 -0 -0 0 -0 -0 0 -0 -0 0 -0 -0 0 -0 -0 0 -0 -0 0 -0 -0 0 -0 -0 0 -0 -0 0 -0 -0 0 -0 
